{
  "asset": {
    "version": "2.0",
    "generator": "k1finder-free-assets"
  },
  "scenes": [
    {
      "nodes": [
        0
      ]
    }
  ],
  "scene": 0,
  "nodes": [
    {
      "mesh": 0,
      "name": "wooden_pallet"
    }
  ],
  "meshes": [
    {
      "name": "wooden_pallet",
      "primitives": [
        {
          "attributes": {
            "POSITION": 0
          },
          "indices": 1,
          "material": 0
        }
      ]
    }
  ],
  "materials": [
    {
      "name": "wood",
      "pbrMetallicRoughness": {
        "baseColorFactor": [
          0.45,
          0.32,
          0.18,
          1
        ],
        "metallicFactor": 0.0,
        "roughnessFactor": 0.85
      }
    }
  ],
  "accessors": [
    {
      "bufferView": 0,
      "componentType": 5126,
      "count": 72,
      "type": "VEC3",
      "max": [
        0.55,
        0.115,
        0.55
      ],
      "min": [
        -0.55,
        0.0,
        -0.55
      ]
    },
    {
      "bufferView": 1,
      "componentType": 5123,
      "count": 324,
      "type": "SCALAR"
    }
  ],
  "bufferViews": [
    {
      "buffer": 0,
      "byteOffset": 0,
      "byteLength": 864,
      "target": 34962
    },
    {
      "buffer": 0,
      "byteOffset": 864,
      "byteLength": 648,
      "target": 34963
    }
  ],
  "buffers": [
    {
      "byteLength": 1512,
      "uri": "wooden_pallet_cc0.bin"
    }
  ]
}